<svg xmlns="http://www.w3.org/2000/svg" width="17.998" height="16" viewBox="0 0 17.998 16" fill="none">
  <path d="M 17.994 7.984 C 17.994 8.547 17.525 8.988 16.994 8.988 L 15.994 8.988 L 16.016 13.994 C 16.016 14.078 16.009 14.162 16 14.247 L 16 14.75 C 16 15.441 15.441 16 14.75 16 L 14.25 16 C 14.216 16 14.181 16 14.147 15.997 C 14.103 16 14.059 16 14.016 16 L 13 16 L 12.25 16 C 11.559 16 11 15.441 11 14.75 L 11 14 L 11 12 C 11 11.447 10.553 11 10 11 L 8 11 C 7.447 11 7 11.447 7 12 L 7 14 L 7 14.75 C 7 15.441 6.441 16 5.75 16 L 5 16 L 4.003 16 C 3.956 16 3.909 15.997 3.862 15.994 C 3.825 15.997 3.787 16 3.75 16 L 3.25 16 C 2.559 16 2 15.441 2 14.75 L 2 11.25 C 2 11.222 2 11.191 2.003 11.163 L 2.003 8.988 L 1 8.988 C 0.438 8.988 0 8.55 0 7.984 C 0 7.703 0.094 7.453 0.313 7.234 L 8.325 0.25 C 8.544 0.031 8.794 0 9.012 0 C 9.231 0 9.481 0.063 9.669 0.219 L 17.65 7.234 C 17.9 7.453 18.025 7.703 17.994 7.984 Z" fill="currentColor" fill-rule="nonzero"></path>
</svg>