<svg xmlns="http://www.w3.org/2000/svg" width="20.000" height="16.001" viewBox="0 0 20.000 16.001" fill="none">
  <path d="M 7.153 0.769 C 6.913 0.188 6.278 -0.121 5.672 0.044 L 2.922 0.794 C 2.378 0.944 2 1.438 2 2.001 C 2 5.357 3.181 8.438 5.15 10.848 L 0.288 14.66 C -0.037 14.916 -0.097 15.388 0.16 15.713 C 0.416 16.038 0.888 16.098 1.213 15.841 L 19.713 1.341 C 20.038 1.085 20.097 0.613 19.841 0.288 C 19.585 -0.037 19.113 -0.096 18.788 0.16 L 7.906 8.688 C 7.35 8.016 6.878 7.276 6.5 6.479 L 8.041 5.219 C 8.469 4.869 8.616 4.282 8.403 3.773 L 7.153 0.773 L 7.153 0.769 Z M 10.178 10.738 L 7.325 12.988 C 9.71 14.876 12.722 16.001 16 16.001 C 16.563 16.001 17.056 15.623 17.206 15.079 L 17.956 12.329 C 18.122 11.723 17.813 11.088 17.231 10.848 L 14.231 9.598 C 13.722 9.385 13.131 9.532 12.785 9.96 L 11.522 11.501 C 11.053 11.279 10.606 11.026 10.178 10.741 L 10.178 10.738 Z" fill="currentColor" fill-rule="nonzero"></path>
</svg>