<svg xmlns="http://www.w3.org/2000/svg" width="13.500" height="12" viewBox="0 0 13.500 12" fill="none">
  <path d="M 12.75 0 C 13.165 0 13.5 0.335 13.5 0.75 L 13.5 11.25 C 13.5 11.665 13.165 12 12.75 12 C 12.335 12 12 11.665 12 11.25 L 12 0.75 C 12 0.335 12.335 0 12.75 0 Z M 9.75 2.25 C 10.165 2.25 10.5 2.585 10.5 3 L 10.5 11.25 C 10.5 11.665 10.165 12 9.75 12 C 9.335 12 9 11.665 9 11.25 L 9 3 C 9 2.585 9.335 2.25 9.75 2.25 Z M 7.5 5.25 L 7.5 11.25 C 7.5 11.665 7.165 12 6.75 12 C 6.335 12 6 11.665 6 11.25 L 6 5.25 C 6 4.835 6.335 4.5 6.75 4.5 C 7.165 4.5 7.5 4.835 7.5 5.25 Z M 3.75 6.75 C 4.165 6.75 4.5 7.085 4.5 7.5 L 4.5 11.25 C 4.5 11.665 4.165 12 3.75 12 C 3.335 12 3 11.665 3 11.25 L 3 7.5 C 3 7.085 3.335 6.75 3.75 6.75 Z M 1.5 9.75 L 1.5 11.25 C 1.5 11.665 1.165 12 0.75 12 C 0.335 12 0 11.665 0 11.25 L 0 9.75 C 0 9.335 0.335 9 0.75 9 C 1.165 9 1.5 9.335 1.5 9.75 Z" fill="currentColor" fill-rule="nonzero"></path>
</svg>