<svg xmlns="http://www.w3.org/2000/svg" width="16" height="15" viewBox="0 0 16 15" fill="none">
  <path d="M 5.75 1.5 L 10.25 1.5 C 10.387 1.5 10.5 1.612 10.5 1.75 L 10.5 3 L 5.5 3 L 5.5 1.75 C 5.5 1.612 5.613 1.5 5.75 1.5 Z M 4 1.75 L 4 3 L 2 3 C 0.897 3 0 3.897 0 5 L 0 8 L 6 8 L 10 8 L 16 8 L 16 5 C 16 3.897 15.103 3 14 3 L 12 3 L 12 1.75 C 12 0.784 11.216 0 10.25 0 L 5.75 0 C 4.784 0 4 0.784 4 1.75 Z M 16 9 L 10 9 L 10 10 C 10 10.553 9.553 11 9 11 L 7 11 C 6.447 11 6 10.553 6 10 L 6 9 L 0 9 L 0 13 C 0 14.103 0.897 15 2 15 L 14 15 C 15.103 15 16 14.103 16 13 L 16 9 Z" fill="currentColor" fill-rule="nonzero"></path>
</svg>