<svg xmlns="http://www.w3.org/2000/svg" width="16.000" height="16.003" viewBox="0 0 16.000 16.003" fill="none">
  <path d="M 15.566 0.175 C 15.882 0.394 16.047 0.772 15.988 1.15 L 13.988 14.15 C 13.941 14.453 13.757 14.719 13.488 14.869 C 13.219 15.019 12.897 15.038 12.613 14.919 L 8.875 13.366 L 6.735 15.681 C 6.457 15.984 6.019 16.084 5.635 15.934 C 5.25 15.784 5 15.413 5 15 L 5 12.388 C 5 12.263 5.047 12.144 5.132 12.053 L 10.369 6.338 C 10.55 6.141 10.544 5.838 10.357 5.65 C 10.169 5.463 9.866 5.45 9.669 5.628 L 3.313 11.275 L 0.553 9.894 C 0.222 9.728 0.01 9.397 0 9.028 C -0.009 8.659 0.185 8.316 0.503 8.131 L 14.503 0.131 C 14.838 -0.059 15.25 -0.041 15.566 0.175 Z" fill="currentColor" fill-rule="nonzero"></path>
</svg>