<svg xmlns="http://www.w3.org/2000/svg" width="16" height="16" viewBox="0 0 16 16" fill="none">
  <path d="M 8 16 C 10.122 16 12.157 15.157 13.657 13.657 C 15.157 12.157 16 10.122 16 8 C 16 5.878 15.157 3.843 13.657 2.343 C 12.157 0.843 10.122 0 8 0 C 5.878 0 3.843 0.843 2.343 2.343 C 0.843 3.843 0 5.878 0 8 C 0 10.122 0.843 12.157 2.343 13.657 C 3.843 15.157 5.878 16 8 16 Z M 11.531 6.531 L 7.531 10.531 C 7.238 10.825 6.763 10.825 6.472 10.531 L 4.472 8.531 C 4.178 8.238 4.178 7.763 4.472 7.472 C 4.766 7.181 5.241 7.178 5.531 7.472 L 7 8.941 L 10.469 5.469 C 10.762 5.175 11.238 5.175 11.528 5.469 C 11.819 5.762 11.822 6.237 11.528 6.528 L 11.531 6.531 Z" fill="currentColor" fill-rule="nonzero"></path>
</svg>