<svg xmlns="http://www.w3.org/2000/svg" width="16" height="16" viewBox="0 0 16 16" fill="none">
  <path d="M 8 0 C 12.418 0 16 3.582 16 8 C 16 12.418 12.418 16 8 16 C 3.582 16 0 12.418 0 8 C 0 3.582 3.582 0 8 0 Z M 7.89 10.764 C 7.517 10.764 7.241 10.794 7.063 10.856 C 6.894 10.918 6.776 11.02 6.708 11.162 C 6.64 11.295 6.597 11.415 6.58 11.521 C 6.572 11.628 6.567 11.783 6.567 11.986 L 6.567 12.199 C 6.567 12.563 6.64 12.82 6.784 12.971 C 6.979 13.157 7.259 13.25 7.623 13.25 C 7.987 13.25 8.254 13.223 8.424 13.17 C 8.602 13.108 8.733 12.993 8.817 12.824 C 8.902 12.647 8.945 12.381 8.945 12.026 C 8.945 11.53 8.86 11.198 8.69 11.029 C 8.529 10.852 8.262 10.764 7.89 10.764 Z M 7.699 3.25 C 7.275 3.25 6.889 3.325 6.542 3.476 C 6.195 3.617 5.923 3.778 5.729 3.955 C 5.542 4.123 5.373 4.323 5.221 4.553 C 5.077 4.783 4.987 4.947 4.953 5.045 C 4.919 5.134 4.877 5.249 4.826 5.391 C 4.775 5.524 4.75 5.657 4.75 5.79 C 4.75 6.091 5.004 6.344 5.513 6.548 C 5.775 6.654 5.987 6.707 6.148 6.707 C 6.309 6.707 6.44 6.649 6.542 6.534 C 6.644 6.41 6.733 6.233 6.81 6.003 L 6.848 5.843 C 6.882 5.737 6.97 5.635 7.114 5.537 C 7.267 5.431 7.5 5.378 7.813 5.378 C 8.127 5.378 8.36 5.458 8.513 5.617 C 8.674 5.777 8.754 6.003 8.754 6.295 C 8.754 6.579 8.648 6.805 8.437 6.974 C 8.233 7.142 8.008 7.261 7.763 7.332 C 7.517 7.403 7.288 7.55 7.076 7.771 C 6.873 7.993 6.771 8.295 6.771 8.676 L 6.759 8.782 C 6.759 8.959 6.763 9.092 6.771 9.181 C 6.788 9.26 6.826 9.354 6.886 9.46 C 6.945 9.566 7.046 9.642 7.19 9.687 C 7.343 9.731 7.542 9.753 7.788 9.753 C 8.034 9.753 8.229 9.735 8.373 9.699 C 8.525 9.655 8.631 9.589 8.69 9.5 C 8.758 9.403 8.796 9.314 8.805 9.234 C 8.822 9.155 8.83 9.039 8.83 8.889 L 9.034 8.822 C 9.356 8.698 9.703 8.449 10.076 8.077 C 10.263 7.891 10.42 7.638 10.547 7.319 C 10.682 6.991 10.75 6.636 10.75 6.255 C 10.75 5.457 10.466 4.757 9.898 4.154 C 9.331 3.551 8.597 3.25 7.699 3.25 Z" fill="currentColor" fill-rule="nonzero"></path>
</svg>